<?xml version="1.0" standalone="no"?>
<!DOCTYPE svg PUBLIC "-//W3C//DTD SVG 20010904//EN"
 "http://www.w3.org/TR/2001/REC-SVG-20010904/DTD/svg10.dtd">
<svg version="1.0" xmlns="http://www.w3.org/2000/svg"
 width="1018.000000pt" height="1280.000000pt" viewBox="0 0 1018.000000 1280.000000"
 preserveAspectRatio="xMidYMid meet">
<metadata>
Created by potrace 1.15, written by Peter Selinger 2001-2017
</metadata>
<g transform="translate(0.000000,1280.000000) scale(0.100000,-0.100000)"
fill="#000000" stroke="none">
<path d="M5000 12784 c-501 -95 -780 -224 -997 -462 -227 -248 -299 -307 -408
-333 -34 -8 -162 -11 -400 -10 -479 2 -1022 -14 -1435 -44 -498 -36 -722 -45
-1100 -45 -443 -1 -558 -16 -627 -85 -40 -40 -42 -69 -7 -121 34 -52 55 -69
226 -185 330 -222 536 -448 678 -744 126 -261 167 -449 212 -965 17 -191 16
-1195 -1 -1665 -16 -432 -16 -1132 -1 -1360 6 -93 20 -258 30 -365 10 -107 25
-256 32 -330 14 -155 15 -497 4 -1095 -6 -332 -5 -497 8 -785 22 -477 41
-2457 25 -2544 -15 -85 -45 -158 -142 -351 -86 -171 -117 -259 -117 -343 0
-25 18 -94 42 -165 60 -174 59 -230 -5 -389 -27 -67 -47 -133 -47 -154 0 -80
61 -159 162 -210 174 -88 403 12 503 220 30 63 36 87 45 197 27 318 33 335
146 434 43 39 131 123 194 187 68 70 131 124 155 135 36 16 78 18 460 18 231
1 569 5 750 9 249 7 466 4 880 -8 599 -19 1226 -17 1840 4 237 9 458 10 685 4
184 -4 524 -8 755 -9 382 0 424 -2 460 -18 24 -11 87 -65 155 -135 63 -64 151
-148 194 -187 113 -99 119 -118 146 -435 9 -112 14 -133 45 -197 102 -208 330
-307 503 -219 70 36 117 78 143 132 29 61 22 110 -33 244 -59 146 -59 207 0
376 24 71 42 139 42 164 0 82 -32 174 -117 345 -97 193 -127 266 -142 351 -16
86 3 2067 25 2549 13 293 14 456 8 785 -14 700 -10 946 20 1260 45 470 47 497
55 811 8 304 3 648 -20 1444 -25 873 6 1542 86 1879 67 283 190 529 379 753
106 126 231 234 422 363 165 111 213 151 246 205 26 44 23 72 -15 110 -69 69
-184 84 -627 85 -378 0 -602 9 -1100 45 -411 29 -954 46 -1435 44 -236 -1
-366 3 -400 10 -109 26 -181 85 -408 333 -186 204 -427 332 -787 417 -112 27
-297 62 -310 60 -3 0 -39 -7 -80 -15z m256 -149 c155 -27 445 -141 619 -244
154 -90 358 -254 445 -356 66 -76 93 -100 143 -125 128 -62 286 -80 702 -80
309 0 742 -11 1335 -35 201 -8 469 -17 595 -20 356 -9 596 -22 640 -36 l40
-13 -60 -7 c-286 -34 -1232 -36 -1960 -4 -519 23 -535 24 -568 2 -15 -9 -27
-21 -27 -26 0 -13 77 -41 155 -56 73 -14 321 -28 830 -46 160 -5 358 -14 440
-20 108 -7 238 -7 465 2 338 13 539 9 582 -11 58 -27 42 -72 -35 -96 -70 -22
-384 -30 -614 -15 -94 6 -391 18 -660 26 -722 22 -1064 35 -1193 46 -63 5
-254 14 -425 19 -192 6 -337 15 -381 24 -79 16 -154 51 -285 131 -226 139
-509 253 -811 325 l-137 33 -118 -28 c-308 -72 -606 -190 -832 -330 -223 -137
-250 -143 -680 -155 -178 -6 -331 -12 -340 -14 -30 -9 -443 -26 -1096 -46
-357 -11 -729 -25 -825 -31 -240 -15 -559 -7 -623 16 -74 27 -86 72 -24 95 53
20 245 24 577 11 237 -10 353 -10 470 -2 85 6 292 16 460 21 442 14 725 30
805 45 78 15 155 43 155 56 0 5 -12 17 -27 26 -33 22 -49 21 -568 -2 -728 -32
-1674 -30 -1960 4 l-60 7 40 13 c44 14 284 27 640 36 127 3 394 12 595 20 593
24 1026 35 1335 35 416 0 574 18 702 80 50 25 77 49 143 125 62 73 116 121
233 208 181 135 251 177 428 256 320 141 507 175 735 136z m-64 -780 c243 -36
514 -131 760 -266 341 -187 404 -199 1063 -198 334 0 487 -4 830 -26 255 -16
602 -30 885 -35 256 -5 489 -14 519 -19 118 -22 151 -43 151 -94 0 -35 -16
-64 -101 -189 -79 -116 -204 -336 -251 -443 -66 -148 -100 -306 -133 -615 -44
-404 -47 -477 -55 -1455 -6 -744 -12 -999 -24 -1134 -9 -96 -20 -292 -26 -435
-5 -144 -14 -317 -20 -386 -22 -274 -41 -599 -50 -875 -10 -268 -9 -308 12
-531 l22 -242 -24 -142 c-23 -140 -23 -143 -7 -288 26 -238 28 -289 16 -452
-6 -88 -14 -602 -19 -1185 -7 -1099 -8 -1117 -57 -1183 -42 -57 -37 -57 -773
-57 -501 0 -777 5 -1070 18 -217 10 -600 22 -850 27 -480 8 -516 12 -609 60
-88 45 -107 175 -76 521 20 215 18 263 -21 629 -23 208 -26 303 -34 830 -16
1018 -29 1588 -40 1775 -10 159 -26 1368 -24 1800 1 94 8 204 18 268 20 134
20 202 0 447 -13 149 -18 390 -23 1017 -3 453 -3 839 2 860 17 80 55 89 161
37 69 -34 140 -107 170 -177 65 -145 73 -303 47 -922 -11 -260 -12 -459 -6
-845 5 -278 8 -647 6 -820 -2 -250 1 -338 14 -425 11 -72 19 -232 25 -460 9
-367 22 -488 61 -604 28 -83 90 -151 140 -152 98 -3 130 10 233 98 125 106
170 135 341 220 286 141 412 170 702 160 170 -6 245 -18 353 -58 125 -46 203
-122 379 -368 140 -195 222 -260 313 -248 91 12 115 75 129 332 40 756 52 958
71 1160 18 204 22 329 28 1105 7 845 8 884 33 1125 28 267 43 469 52 710 21
539 50 760 125 965 42 116 101 211 177 286 53 52 64 68 61 91 l-3 28 -105 3
c-83 2 -148 -5 -315 -33 -318 -54 -477 -61 -1054 -46 -267 6 -569 16 -670 22
-101 6 -204 8 -229 4 -88 -13 -110 -42 -161 -215 -59 -198 -162 -378 -288
-504 -78 -77 -296 -232 -365 -258 -60 -22 -138 -23 -203 0 -27 9 -110 57 -182
106 l-133 88 -132 -88 c-73 -49 -155 -97 -183 -106 -57 -20 -133 -23 -188 -7
-44 12 -252 150 -333 221 -153 134 -268 321 -335 548 -67 224 -76 229 -391
211 -106 -6 -409 -16 -674 -22 -571 -15 -732 -7 -1049 46 -167 28 -232 35
-315 33 l-105 -3 -3 -28 c-3 -24 7 -39 56 -86 129 -124 206 -297 251 -562 26
-157 39 -308 56 -699 16 -348 21 -419 57 -760 20 -188 22 -268 24 -945 3 -803
5 -894 34 -1240 20 -241 29 -387 55 -900 17 -348 29 -475 49 -514 49 -95 161
-92 268 8 25 22 87 99 139 172 176 246 254 322 379 368 110 41 183 52 360 58
286 9 421 -22 705 -165 162 -81 209 -111 312 -200 117 -101 151 -116 252 -113
50 1 112 69 140 152 39 116 52 237 61 604 6 228 14 388 25 460 13 88 16 174
14 435 -2 179 1 548 5 820 7 379 6 573 -5 830 -27 636 -18 788 52 937 37 78
115 151 194 181 76 29 92 28 116 -10 20 -33 20 -40 15 -888 -3 -656 -8 -895
-20 -1025 -20 -221 -20 -320 0 -452 10 -62 17 -175 17 -263 2 -424 -13 -1628
-23 -1795 -12 -201 -25 -796 -39 -1775 -8 -526 -12 -623 -35 -835 -39 -376
-41 -419 -21 -634 31 -343 13 -470 -73 -519 -89 -50 -127 -54 -622 -63 -256
-4 -571 -13 -700 -18 -641 -28 -892 -33 -1371 -29 -557 5 -573 7 -612 60 -49
66 -50 84 -57 1183 -5 611 -12 1093 -19 1185 -12 162 -10 225 16 453 15 136
15 142 -7 283 -25 155 -24 167 10 514 12 128 -4 623 -36 1065 -13 193 -29 461
-34 596 -5 136 -17 329 -26 430 -12 143 -18 399 -24 1139 -9 975 -11 1042 -56
1450 -49 455 -84 568 -275 895 -44 77 -103 170 -130 207 -64 89 -79 120 -79
163 0 33 4 38 43 55 77 34 156 41 627 50 282 5 630 19 885 35 342 22 496 26
830 26 659 -1 722 11 1063 198 242 133 513 229 747 265 117 18 105 18 217 1z
m-1603 -996 c38 -8 58 -20 85 -49 50 -56 75 -109 151 -330 37 -107 81 -217 97
-243 42 -66 111 -123 218 -181 109 -59 161 -103 196 -162 24 -40 26 -55 31
-196 4 -109 -1 -227 -15 -408 -12 -140 -23 -286 -26 -324 -5 -86 8 -283 33
-516 11 -96 25 -251 32 -345 16 -222 17 -767 1 -1020 -6 -110 -17 -375 -23
-590 -15 -575 -23 -703 -45 -747 -10 -21 -24 -38 -31 -38 -26 0 -78 33 -165
104 -99 82 -207 144 -361 210 -319 136 -642 167 -943 91 -107 -27 -147 -49
-359 -195 -211 -145 -284 -170 -336 -114 -22 24 -24 33 -23 122 0 53 4 176 9
273 8 188 4 267 -41 709 -42 419 -44 481 -54 1400 -5 492 -14 990 -20 1105
-24 472 -71 781 -167 1110 -34 118 -47 178 -47 230 l-1 69 55 14 c78 18 307
19 806 3 440 -15 445 -15 769 19 107 11 120 11 174 -1z m3334 -16 c145 -15
196 -16 605 -2 514 16 734 15 812 -4 l55 -13 -1 -69 c0 -51 -12 -109 -41 -210
-82 -280 -115 -454 -148 -775 -27 -270 -36 -553 -45 -1450 -10 -918 -13 -990
-55 -1410 -44 -445 -48 -522 -40 -709 5 -97 9 -220 9 -273 1 -89 -1 -98 -23
-122 -53 -56 -128 -30 -336 114 -205 141 -255 169 -362 196 -298 75 -622 43
-942 -93 -145 -62 -267 -133 -364 -213 -82 -67 -134 -100 -160 -100 -7 0 -22
17 -32 38 -21 44 -28 160 -45 747 -6 215 -16 476 -22 580 -25 395 -13 959 28
1335 8 74 19 178 25 230 16 152 12 386 -11 650 -28 307 -24 533 9 597 28 56
92 110 200 168 108 58 177 116 219 182 16 26 60 136 97 243 76 221 101 274
151 330 59 65 91 67 417 33z m72 -9412 c290 -17 316 -26 105 -34 -867 -37
-3148 -37 -4020 0 -226 9 -183 18 155 33 143 6 278 12 300 14 22 2 765 2 1650
1 1125 -1 1670 -5 1810 -14z m-5356 -38 c22 -14 23 -16 6 -25 -9 -6 -55 -13
-101 -16 -68 -4 -88 -2 -109 12 -21 14 -24 20 -15 31 6 8 24 16 38 18 47 9
156 -4 181 -20z m7119 3 c12 -12 10 -17 -12 -31 -22 -15 -41 -17 -109 -12 -83
5 -117 13 -117 27 0 9 43 27 80 34 43 8 144 -4 158 -18z m-7064 -209 c30 -22
11 -68 -60 -149 -125 -140 -136 -183 -132 -493 3 -205 1 -234 -15 -262 -36
-66 -137 -86 -229 -45 -92 40 -98 93 -26 235 36 71 42 91 42 148 1 66 1 67
-69 169 l-70 102 0 72 c0 61 4 78 25 108 59 86 178 123 411 127 73 1 111 -3
123 -12z m7066 3 c120 -16 177 -36 226 -82 51 -47 69 -98 60 -173 -4 -40 -19
-69 -73 -148 -67 -98 -68 -100 -67 -166 0 -57 6 -77 42 -148 50 -99 61 -152
38 -188 -40 -60 -173 -89 -243 -52 -64 34 -68 55 -65 312 4 310 -8 356 -131
492 -72 80 -92 127 -61 150 21 16 163 17 274 3z"/>
<path d="M4880 12414 c-456 -80 -638 -147 -790 -291 -57 -54 -79 -84 -126
-176 -94 -187 -98 -189 -329 -197 -97 -3 -179 -10 -190 -17 -24 -13 -60 -51
-54 -57 2 -2 36 -11 76 -20 89 -20 228 -20 310 -1 107 25 150 51 212 129 94
119 141 158 258 216 59 30 153 80 208 111 263 148 372 179 635 179 263 0 372
-31 635 -179 55 -31 149 -81 208 -111 117 -58 164 -97 258 -216 62 -78 105
-104 212 -129 82 -19 221 -19 310 1 40 9 74 18 76 20 6 6 -30 44 -54 57 -11 7
-93 14 -190 17 -231 8 -235 10 -329 197 -47 92 -69 122 -126 176 -154 146
-338 213 -800 292 -113 19 -207 35 -210 34 -3 -1 -93 -16 -200 -35z"/>
<path d="M4749 6377 c-60 -32 -100 -108 -107 -207 -5 -68 -3 -74 41 -163 69
-140 96 -241 73 -273 -13 -17 -15 -17 -41 0 -27 18 -27 17 -56 -10 -36 -34
-36 -47 -4 -68 14 -9 25 -25 25 -36 0 -32 52 -26 94 10 35 31 66 101 66 150 0
15 -11 60 -25 101 -31 90 -55 197 -55 248 0 42 21 67 80 96 85 42 103 93 51
146 -37 36 -81 38 -142 6z"/>
<path d="M5271 6374 c-23 -19 -31 -34 -31 -59 0 -40 16 -57 81 -90 75 -39 85
-60 70 -155 -6 -43 -25 -118 -41 -166 -17 -48 -30 -106 -30 -128 0 -58 41
-141 79 -160 43 -23 81 -21 81 4 0 11 11 27 25 36 32 21 32 34 -4 68 -28 27
-30 27 -55 11 -22 -14 -29 -15 -42 -4 -31 25 0 139 83 303 32 64 35 76 30 131
-8 86 -24 130 -60 172 -58 66 -134 81 -186 37z"/>
<path d="M3085 4874 c-331 -27 -584 -89 -810 -199 -186 -90 -219 -125 -251
-261 -21 -91 -30 -345 -24 -669 3 -148 1 -499 -4 -778 -9 -536 -6 -589 35
-656 10 -17 40 -41 66 -54 97 -49 132 -52 645 -49 297 2 580 -1 750 -10 378
-18 558 -17 629 5 157 47 208 150 229 457 6 85 22 324 36 530 32 452 44 1142
24 1284 -13 96 -49 179 -90 208 -41 29 -129 56 -343 103 -326 71 -428 86 -647
89 -107 2 -217 2 -245 0z m447 -184 c267 -26 491 -104 595 -206 63 -63 73 -94
73 -240 0 -61 5 -227 11 -370 11 -266 0 -860 -22 -1135 -16 -213 -47 -278
-142 -299 -82 -19 -367 -24 -678 -11 -156 7 -426 16 -599 22 -443 13 -529 32
-573 127 -20 44 -22 61 -20 237 1 180 12 395 33 675 6 85 5 171 -3 270 -6 80
-11 237 -12 350 0 247 10 292 80 365 107 109 411 199 745 218 128 8 422 6 512
-3z"/>
<path d="M6674 4870 c-118 -12 -242 -35 -471 -85 -311 -68 -350 -86 -394 -173
-46 -88 -52 -178 -46 -641 5 -397 10 -499 67 -1316 30 -433 121 -499 630 -464
115 8 425 13 820 14 677 2 708 4 803 52 107 54 111 85 101 723 -5 278 -7 623
-4 768 6 297 -2 546 -20 642 -27 150 -67 194 -255 285 -273 132 -557 192 -950
200 -110 2 -237 0 -281 -5z m669 -195 c359 -49 577 -153 623 -298 24 -75 29
-302 11 -557 -9 -118 -13 -242 -11 -275 2 -33 9 -116 14 -185 5 -69 15 -240
20 -380 15 -354 4 -423 -78 -468 -70 -39 -175 -51 -512 -61 -173 -6 -443 -15
-599 -22 -311 -13 -596 -8 -678 11 -95 21 -126 86 -142 299 -22 275 -33 869
-22 1135 6 143 11 309 11 370 0 146 10 177 73 240 102 100 323 179 577 206
128 13 575 4 713 -15z"/>
</g>
</svg>
